<svg width="97" height="112" viewBox="0 0 97 112" fill="none" xmlns="http://www.w3.org/2000/svg">
<path d="M48.5 0L96.9974 28L96.9961 84.0022L48.4974 112.004L0 84.0045L0.00128832 28.0022L48.5 0Z" fill="#EEF9AC"/>
<path d="M75.1875 74.125H71.5625V48.75C72.0432 48.75 72.5042 48.559 72.8441 48.2191C73.184 47.8792 73.375 47.4182 73.375 46.9375C73.375 46.4568 73.184 45.9958 72.8441 45.6559C72.5042 45.316 72.0432 45.125 71.5625 45.125H60.6875V37.875C61.1682 37.875 61.6292 37.684 61.9691 37.3441C62.309 37.0042 62.5 36.5432 62.5 36.0625C62.5 35.5818 62.309 35.1208 61.9691 34.7809C61.6292 34.441 61.1682 34.25 60.6875 34.25H28.0625C27.5818 34.25 27.1208 34.441 26.7809 34.7809C26.441 35.1208 26.25 35.5818 26.25 36.0625C26.25 36.5432 26.441 37.0042 26.7809 37.3441C27.1208 37.684 27.5818 37.875 28.0625 37.875V74.125H24.4375C23.9568 74.125 23.4958 74.316 23.1559 74.6559C22.816 74.9958 22.625 75.4568 22.625 75.9375C22.625 76.4182 22.816 76.8792 23.1559 77.2191C23.4958 77.559 23.9568 77.75 24.4375 77.75H75.1875C75.6682 77.75 76.1292 77.559 76.4691 77.2191C76.809 76.8792 77 76.4182 77 75.9375C77 75.4568 76.809 74.9958 76.4691 74.6559C76.1292 74.316 75.6682 74.125 75.1875 74.125ZM67.9375 48.75V74.125H60.6875V48.75H67.9375ZM31.6875 37.875H57.0625V74.125H51.625V63.25C51.625 62.7693 51.434 62.3083 51.0941 61.9684C50.7542 61.6285 50.2932 61.4375 49.8125 61.4375H38.9375C38.4568 61.4375 37.9958 61.6285 37.6559 61.9684C37.316 62.3083 37.125 62.7693 37.125 63.25V74.125H31.6875V37.875ZM48 74.125H40.75V65.0625H48V74.125ZM35.3125 45.125C35.3125 44.6443 35.5035 44.1833 35.8434 43.8434C36.1833 43.5035 36.6443 43.3125 37.125 43.3125H40.75C41.2307 43.3125 41.6917 43.5035 42.0316 43.8434C42.3715 44.1833 42.5625 44.6443 42.5625 45.125C42.5625 45.6057 42.3715 46.0667 42.0316 46.4066C41.6917 46.7465 41.2307 46.9375 40.75 46.9375H37.125C36.6443 46.9375 36.1833 46.7465 35.8434 46.4066C35.5035 46.0667 35.3125 45.6057 35.3125 45.125ZM46.1875 45.125C46.1875 44.6443 46.3785 44.1833 46.7184 43.8434C47.0583 43.5035 47.5193 43.3125 48 43.3125H51.625C52.1057 43.3125 52.5667 43.5035 52.9066 43.8434C53.2465 44.1833 53.4375 44.6443 53.4375 45.125C53.4375 45.6057 53.2465 46.0667 52.9066 46.4066C52.5667 46.7465 52.1057 46.9375 51.625 46.9375H48C47.5193 46.9375 47.0583 46.7465 46.7184 46.4066C46.3785 46.0667 46.1875 45.6057 46.1875 45.125ZM35.3125 54.1875C35.3125 53.7068 35.5035 53.2458 35.8434 52.9059C36.1833 52.566 36.6443 52.375 37.125 52.375H40.75C41.2307 52.375 41.6917 52.566 42.0316 52.9059C42.3715 53.2458 42.5625 53.7068 42.5625 54.1875C42.5625 54.6682 42.3715 55.1292 42.0316 55.4691C41.6917 55.809 41.2307 56 40.75 56H37.125C36.6443 56 36.1833 55.809 35.8434 55.4691C35.5035 55.1292 35.3125 54.6682 35.3125 54.1875ZM46.1875 54.1875C46.1875 53.7068 46.3785 53.2458 46.7184 52.9059C47.0583 52.566 47.5193 52.375 48 52.375H51.625C52.1057 52.375 52.5667 52.566 52.9066 52.9059C53.2465 53.2458 53.4375 53.7068 53.4375 54.1875C53.4375 54.6682 53.2465 55.1292 52.9066 55.4691C52.5667 55.809 52.1057 56 51.625 56H48C47.5193 56 47.0583 55.809 46.7184 55.4691C46.3785 55.1292 46.1875 54.6682 46.1875 54.1875Z" fill="#909052"/>
</svg>
