<svg width="97" height="113" viewBox="0 0 97 113" fill="none" xmlns="http://www.w3.org/2000/svg">
<path d="M48.5 0.49707L96.9974 28.4971L96.9961 84.4993L48.4974 112.502L0 84.5015L0.00128832 28.4993L48.5 0.49707Z" fill="#EEF9AC"/>
<path d="M60.7197 46.8333C60.7223 44.006 59.7913 41.2569 58.0711 39.0131C56.3509 36.7693 53.9379 35.1564 51.2069 34.4248C48.4759 33.6933 45.5798 33.8841 42.9683 34.9675C40.3569 36.051 38.1763 37.9666 36.7653 40.4166C36.2791 41.2593 36.1475 42.2605 36.3995 43.2002C36.6515 44.1398 37.2665 44.9409 38.1092 45.4271C38.9518 45.9134 39.9531 46.0449 40.8927 45.7929C41.8324 45.5409 42.6334 44.9259 43.1197 44.0833C43.6035 43.2474 44.2986 42.5534 45.1352 42.0707C45.9718 41.5881 46.9205 41.3338 47.8863 41.3333C49.345 41.3333 50.744 41.9128 51.7754 42.9442C52.8069 43.9757 53.3863 45.3746 53.3863 46.8333C53.3863 48.292 52.8069 49.6909 51.7754 50.7224C50.744 51.7538 49.345 52.3333 47.8863 52.3333H47.8753C47.6388 52.3571 47.4054 52.405 47.1787 52.4763C46.9324 52.5013 46.6893 52.5504 46.4527 52.623C46.2514 52.7329 46.0611 52.8618 45.8843 53.008C45.6737 53.1228 45.4748 53.2579 45.2903 53.4113C45.1255 53.6084 44.9817 53.8223 44.8613 54.0493C44.7274 54.2144 44.6083 54.3911 44.5057 54.5773C44.4258 54.8301 44.3729 55.0907 44.348 55.3546C44.2849 55.5652 44.2419 55.7813 44.2197 56V59.6666L44.227 59.707V61.5073C44.2289 62.4785 44.6161 63.4092 45.3035 64.0953C45.9909 64.7813 46.9225 65.1666 47.8937 65.1666H47.9047C48.3862 65.1657 48.8628 65.0699 49.3073 64.8847C49.7518 64.6996 50.1554 64.4287 50.4952 64.0875C50.835 63.7463 51.1043 63.3416 51.2877 62.8964C51.4711 62.4511 51.565 61.9741 51.564 61.4926L51.5567 59.0653C54.1954 58.2814 56.5115 56.6684 58.1619 54.4653C59.8123 52.2621 60.7092 49.586 60.7197 46.8333ZM45.3087 71.73C44.7938 72.2406 44.4419 72.8925 44.2975 73.6031C44.1531 74.3138 44.2226 75.0513 44.4973 75.7224C44.7721 76.3935 45.2396 76.9681 45.8409 77.3735C46.4422 77.7789 47.1502 77.9969 47.8753 78C48.8472 77.9916 49.7789 77.611 50.4787 76.9366C51.1595 76.2411 51.5407 75.3066 51.5407 74.3333C51.5407 73.36 51.1595 72.4255 50.4787 71.73C49.7768 71.0758 48.8531 70.7121 47.8937 70.7121C46.9342 70.7121 46.0105 71.0758 45.3087 71.73Z" fill="#919152"/>
</svg>
