<svg width="97" height="112" viewBox="0 0 97 112" fill="none" xmlns="http://www.w3.org/2000/svg">
<path d="M48.5 0L96.9974 28L96.9961 84.0022L48.4974 112.004L0 84.0045L0.00128832 28.0022L48.5 0Z" fill="#EEF9AC"/>
<path d="M48 30.6875C42.9937 30.6875 38.0998 32.1721 33.9371 34.9534C29.7745 37.7348 26.5302 41.6881 24.6143 46.3133C22.6985 50.9386 22.1972 56.0281 23.1739 60.9382C24.1506 65.8484 26.5614 70.3586 30.1014 73.8986C33.6414 77.4387 38.1516 79.8494 43.0618 80.8261C47.9719 81.8028 53.0614 81.3015 57.6867 79.3857C62.3119 77.4699 66.2652 74.2255 69.0466 70.0629C71.828 65.9003 73.3125 61.0063 73.3125 56C73.3051 49.289 70.6358 42.855 65.8904 38.1096C61.145 33.3642 54.711 30.6949 48 30.6875ZM48 75.6875C44.1062 75.6875 40.2998 74.5328 37.0622 72.3696C33.8246 70.2063 31.3012 67.1315 29.8111 63.5341C28.321 59.9367 27.9312 55.9782 28.6908 52.1592C29.4504 48.3402 31.3255 44.8322 34.0788 42.0788C36.8322 39.3255 40.3402 37.4504 44.1592 36.6908C47.9782 35.9311 51.9367 36.321 55.5341 37.8111C59.1315 39.3012 62.2063 41.8246 64.3696 45.0622C66.5329 48.2998 67.6875 52.1062 67.6875 56C67.6819 61.2197 65.6059 66.2241 61.915 69.915C58.2241 73.6059 53.2197 75.6819 48 75.6875ZM63.9375 56C63.9375 56.7459 63.6412 57.4613 63.1137 57.9887C62.5863 58.5162 61.8709 58.8125 61.125 58.8125H48C47.2541 58.8125 46.5387 58.5162 46.0113 57.9887C45.4838 57.4613 45.1875 56.7459 45.1875 56V42.875C45.1875 42.1291 45.4838 41.4137 46.0113 40.8863C46.5387 40.3588 47.2541 40.0625 48 40.0625C48.7459 40.0625 49.4613 40.3588 49.9887 40.8863C50.5162 41.4137 50.8125 42.1291 50.8125 42.875V53.1875H61.125C61.8709 53.1875 62.5863 53.4838 63.1137 54.0113C63.6412 54.5387 63.9375 55.2541 63.9375 56Z" fill="#909052"/>
</svg>
