<svg width="230" height="83" viewBox="0 0 230 83" fill="none" xmlns="http://www.w3.org/2000/svg">
<g clip-path="url(#clip0_5_22)">
<path d="M71.6945 0H23.8986L0 41.5L23.8986 83H71.6945L95.5931 41.5L71.6945 0Z" fill="#F2F297"/>
<path d="M38.5761 66.1714L33.3588 22.9393H41.4522L44.0076 48.1344L47.2541 22.9933H53.5908L56.9976 47.9737L59.6069 22.9393H67.5925L62.4277 66.1714H54.1229L50.4453 40.07L46.9901 66.1714H38.5761Z" fill="#82C6F4"/>
<path d="M80.9556 66.7062C78.7195 66.7062 76.8025 66.3058 75.2049 65.5049C73.6462 64.7398 72.3626 63.5086 71.5314 61.9812C70.68 60.433 70.2543 58.5739 70.2543 56.404V45.0874C70.2543 42.8815 70.68 41.0132 71.5314 39.4825C72.3746 37.9613 73.6677 36.7398 75.2325 35.9865C76.8468 35.1819 78.7545 34.7796 80.9556 34.7796C83.2268 34.7796 85.1156 35.1713 86.6221 35.9547C88.1025 36.7086 89.2986 37.9243 90.0303 39.4188C90.7932 40.9485 91.1746 42.8344 91.1746 45.0763V51.2688H78.8259V57.1938C78.8062 57.8445 78.8964 58.4938 79.0926 59.1143C79.2695 59.6131 79.5178 59.9692 79.8376 60.1826C80.1696 60.3997 80.5593 60.5113 80.9556 60.5027C81.3536 60.512 81.7468 60.4144 82.0945 60.22C82.452 60.0006 82.7315 59.6739 82.8933 59.2861C83.0877 58.8593 83.1854 58.2723 83.1863 57.525V54.2687H91.1718V57.2575C91.1718 60.3891 90.2666 62.7447 88.4561 64.3243C86.6456 65.9039 84.1454 66.6979 80.9556 66.7062ZM78.8259 47.2227H83.1918V44.1272C83.1918 43.3087 83.0942 42.6681 82.8988 42.2053C82.7035 41.7425 82.4354 41.4224 82.0945 41.245C81.723 41.0586 81.3115 40.9668 80.8962 40.9776C80.5082 40.9664 80.1265 41.0784 79.8058 41.2977C79.5026 41.5111 79.2631 41.876 79.0871 42.3924C78.9111 42.9087 78.8222 43.6477 78.8204 44.6094L78.8259 47.2227Z" fill="#82C6F4"/>
<path d="M111.195 66.7062C110.026 66.6981 108.872 66.4337 107.815 65.9316C106.647 65.3842 105.563 64.6742 104.593 63.8227V66.1713H95.9151V22.9393H104.593V37.562C105.578 36.6871 106.703 35.9845 107.921 35.4835C108.993 35.0383 110.141 34.8031 111.302 34.7907C112.472 34.7907 113.474 35.0216 114.309 35.4835C115.145 35.9491 115.85 36.6193 116.359 37.4317C116.915 38.326 117.312 39.3107 117.531 40.3416C117.784 41.4982 117.91 42.6796 117.904 43.8639V57.155C117.904 59.0773 117.646 60.7498 117.131 62.1724C116.616 63.595 115.862 64.7072 114.869 65.509C113.875 66.3071 112.651 66.7062 111.195 66.7062ZM106.988 61.1068C107.557 61.1068 108.001 60.9465 108.32 60.626C108.656 60.2757 108.894 59.8433 109.012 59.372C109.16 58.8059 109.231 58.2224 109.224 57.6372V43.2265C109.232 42.6763 109.16 42.128 109.012 41.5984C108.896 41.1634 108.666 40.7673 108.347 40.451C108.044 40.1656 107.627 40.0229 107.096 40.0229C106.645 40.0215 106.199 40.1218 105.791 40.3166C105.371 40.5199 104.97 40.7611 104.593 41.0372V60.2463C104.971 60.4901 105.373 60.6957 105.791 60.8602C106.171 61.0173 106.577 61.101 106.988 61.1068Z" fill="#82C6F4"/>
<path d="M113.354 66.7062C112.184 66.6982 111.03 66.4339 109.972 65.9316C108.805 65.3845 107.721 64.6745 106.752 63.8227V66.1713H98.0739V22.9393H106.752V37.562C107.737 36.6871 108.862 35.9845 110.08 35.4835C111.154 35.0335 112.304 34.7945 113.467 34.7796C114.637 34.7796 115.64 35.0106 116.475 35.4724C117.311 35.938 118.016 36.6082 118.524 37.4207C119.08 38.3152 119.477 39.2998 119.696 40.3305C119.95 41.4872 120.074 42.6685 120.068 43.8528V57.1439C120.068 59.0662 119.811 60.7387 119.297 62.1613C118.783 63.5839 118.029 64.6961 117.034 65.4979C116.038 66.3035 114.812 66.7062 113.354 66.7062ZM109.147 61.1068C109.714 61.1068 110.158 60.9466 110.478 60.626C110.814 60.276 111.052 59.8435 111.169 59.372C111.317 58.8059 111.389 58.2224 111.382 57.6372V43.2265C111.389 42.6763 111.318 42.128 111.169 41.5984C111.053 41.1636 110.823 40.7676 110.504 40.451C110.201 40.1656 109.785 40.0229 109.252 40.0229C108.801 40.0215 108.356 40.1219 107.949 40.3166C107.528 40.5199 107.127 40.7611 106.75 41.0372V60.2463C107.129 60.4901 107.53 60.6957 107.949 60.8602C108.329 61.0176 108.736 61.1013 109.147 61.1068Z" fill="#EA7373"/>
<path d="M130.497 66.7062C128.931 66.7062 127.617 66.3326 126.557 65.5852C125.517 64.8664 124.689 63.8799 124.16 62.7294C123.639 61.6188 123.367 60.407 123.363 59.1794C123.363 57.258 123.744 55.6386 124.507 54.3214C125.262 53.015 126.287 51.8866 127.515 51.0124C128.791 50.1038 130.166 49.3428 131.614 48.7441C133.105 48.1224 134.58 47.5617 136.036 47.062V43.9664C136.043 43.49 135.989 43.0146 135.876 42.5517C135.794 42.1871 135.609 41.8538 135.344 41.5915C135.095 41.3596 134.722 41.2441 134.226 41.245C133.729 41.246 133.347 41.354 133.079 41.5693C132.806 41.7966 132.613 42.1047 132.526 42.4492C132.414 42.859 132.342 43.2791 132.313 43.7032L132.1 45.9451L124.008 45.6251C124.185 41.93 125.17 39.1989 126.963 37.4318C128.756 35.6646 131.444 34.7806 135.027 34.7796C138.149 34.7796 140.483 35.6429 142.029 37.3694C143.575 39.0959 144.347 41.3286 144.344 44.0676V58.4783C144.344 59.7605 144.371 60.8814 144.424 61.8412C144.478 62.801 144.548 63.6375 144.637 64.3506C144.729 65.0629 144.809 65.6675 144.876 66.1644H137.101C136.995 65.3469 136.871 64.4573 136.729 63.4957C136.587 62.5341 136.48 61.9687 136.41 61.7997C136.049 63.0918 135.361 64.2687 134.414 65.2167C133.434 66.2097 132.129 66.7062 130.497 66.7062ZM133.585 60.8297C133.924 60.8331 134.261 60.7602 134.569 60.6163C134.877 60.4707 135.158 60.2718 135.398 60.0288C135.631 59.7977 135.844 59.5479 136.036 59.282V50.8531C135.326 51.2799 134.67 51.7154 134.067 52.1597C133.489 52.5781 132.969 53.0705 132.519 53.6244C132.1 54.1458 131.768 54.7316 131.535 55.3592C131.294 56.0352 131.177 56.7491 131.188 57.4668C131.188 58.4986 131.401 59.3171 131.828 59.9221C132.02 60.2108 132.281 60.4456 132.589 60.6045C132.896 60.7633 133.239 60.8408 133.585 60.8297Z" fill="#EA7373"/>
<path d="M158.979 66.7062C156.281 66.7062 154.036 66.1012 152.244 64.8911C150.452 63.6809 148.988 61.7059 147.852 58.966L153.761 56.35C154.33 57.7356 154.995 58.8298 155.758 59.6325C156.521 60.4353 157.364 60.8357 158.288 60.8339C158.961 60.8339 159.468 60.6916 159.808 60.4071C159.976 60.2627 160.108 60.0817 160.196 59.8781C160.283 59.6745 160.323 59.4535 160.312 59.2321C160.312 58.4146 160.002 57.6672 159.381 56.9901C158.76 56.313 157.651 55.3167 156.054 54.0013L153.818 52.1334C152.184 50.7478 150.898 49.4046 149.958 48.104C149.018 46.8033 148.548 45.1928 148.547 43.2723C148.547 41.6012 148.982 40.1232 149.851 38.8382C150.73 37.5502 151.933 36.5188 153.338 35.8494C154.797 35.1363 156.401 34.7707 158.024 34.781C160.579 34.781 162.709 35.4739 164.413 36.8595C166.116 38.2451 167.323 40.2021 168.032 42.7305L162.336 45.2925C162.109 44.5851 161.805 43.9049 161.43 43.2639C161.065 42.6259 160.596 42.0532 160.043 41.5693C159.546 41.1207 158.901 40.8737 158.232 40.8765C157.664 40.8765 157.211 41.0368 156.875 41.3573C156.705 41.5226 156.572 41.7222 156.485 41.9429C156.398 42.1637 156.358 42.4005 156.369 42.6376C156.369 43.3138 156.751 44.0431 157.514 44.8256C158.517 45.8258 159.575 46.7704 160.681 47.655L162.864 49.5769C163.751 50.3233 164.621 51.1238 165.473 51.9782C166.309 52.8129 167.017 53.7662 167.576 54.8077C168.141 55.8948 168.426 57.106 168.406 58.3314C168.406 60.1106 167.962 61.6316 167.075 62.8943C166.197 64.1502 164.99 65.1385 163.588 65.7502C162.136 66.3918 160.565 66.7176 158.979 66.7062Z" fill="#EA7373"/>
<path d="M172.076 30.0879V24.0562H180.807V30.0879H172.076ZM172.129 66.1714V35.32H180.807V66.1714H172.129Z" fill="#EA7373"/>
<path d="M196.193 66.7062C193.957 66.7062 192.049 66.2966 190.47 65.4772C188.929 64.6969 187.658 63.4695 186.823 61.9549C185.972 60.4251 185.546 58.5748 185.546 56.404V45.0874C185.546 42.8815 185.972 41.0132 186.823 39.4825C187.655 37.972 188.928 36.7522 190.47 35.9865C192.049 35.1856 193.956 34.7852 196.193 34.7852C198.394 34.7852 200.266 35.1233 201.81 35.7995C203.287 36.4177 204.527 37.4932 205.351 38.8687C206.166 40.2386 206.574 41.9734 206.575 44.0732V47.3294H198.217V43.8071C198.217 42.9887 198.137 42.3568 197.978 41.9115C197.817 41.4668 197.586 41.1564 197.287 40.9776C196.953 40.7919 196.576 40.6996 196.195 40.7102C195.81 40.6966 195.433 40.8198 195.131 41.058C194.846 41.2899 194.633 41.6635 194.491 42.179C194.349 42.6944 194.277 43.415 194.276 44.3406V57.1508C194.276 58.5365 194.445 59.4797 194.782 59.9803C194.941 60.2217 195.159 60.4175 195.416 60.5485C195.673 60.6795 195.959 60.7411 196.247 60.7272C196.641 60.7458 197.031 60.6433 197.365 60.4334C197.679 60.1938 197.904 59.8558 198.004 59.4732C198.163 58.8908 198.235 58.2879 198.217 57.6843V53.5745H206.575V57.3157C206.575 59.3785 206.161 61.1133 205.332 62.5202C204.503 63.9203 203.255 65.0222 201.764 65.6684C200.217 66.3603 198.36 66.7062 196.193 66.7062Z" fill="#EA7373"/>
<path d="M220.577 66.7062C217.879 66.7062 215.634 66.1012 213.842 64.891C212.05 63.6809 210.586 61.7059 209.45 58.966L215.358 56.3499C215.926 57.7356 216.592 58.8298 217.355 59.6325C218.119 60.4353 218.963 60.8343 219.886 60.8297C220.559 60.8297 221.065 60.6875 221.406 60.4029C221.575 60.2588 221.708 60.078 221.795 59.8743C221.883 59.6706 221.923 59.4495 221.912 59.2279C221.912 58.4104 221.602 57.6631 220.981 56.9859C220.36 56.3088 219.25 55.3125 217.653 53.9971L215.416 52.1293C213.783 50.7436 212.496 49.4005 211.556 48.0998C210.617 46.7992 210.146 45.1886 210.145 43.2681C210.145 41.597 210.58 40.119 211.45 38.834C212.328 37.546 213.531 36.5147 214.937 35.8452C216.396 35.1322 217.999 34.7665 219.622 34.7769C222.178 34.7769 224.308 35.4697 226.011 36.8553C227.715 38.241 228.921 40.198 229.631 42.7263L223.935 45.2883C223.708 44.5814 223.404 43.9013 223.03 43.2598C222.667 42.618 222.2 42.0411 221.648 41.5526C221.152 41.1041 220.506 40.8571 219.838 40.8598C219.27 40.8598 218.818 41.0201 218.48 41.3406C218.311 41.5061 218.178 41.7058 218.091 41.9265C218.004 42.1472 217.964 42.3839 217.975 42.621C217.975 43.2972 218.356 44.0265 219.119 44.8089C220.123 45.8092 221.18 46.7538 222.287 47.6384L224.47 49.5603C225.357 50.3067 226.226 51.1071 227.078 51.9616C227.915 52.7958 228.623 53.7493 229.182 54.7911C229.746 55.8781 230.031 57.0893 230.011 58.3148C230.011 60.0939 229.567 61.6149 228.68 62.8777C227.802 64.1335 226.596 65.1218 225.193 65.7335C223.741 66.3821 222.167 66.7137 220.577 66.7062Z" fill="#EA7373"/>
</g>
<defs>
<clipPath id="clip0_5_22">
<rect width="230" height="83" fill="white"/>
</clipPath>
</defs>
</svg>
